<svg width="280" height="200" viewBox="0 0 280 200" fill="none" xmlns="http://www.w3.org/2000/svg">
<g clip-path="url(#clip0_1654_53219)">
<path d="M209.574 176.841C183.434 176.841 166.004 156.251 166.004 127.731C166.004 99.2111 183.434 78.6211 209.574 78.6211C235.714 78.6211 253.144 99.2211 253.144 127.731C253.144 156.241 235.714 176.841 209.574 176.841ZM213.014 59.0711C193.474 59.0711 175.784 68.3111 166.804 84.1511V3.62109H145.944V193.741H166.534V170.771C175.514 186.881 193.204 196.381 213.004 196.381C248.384 196.381 275.324 166.541 275.324 127.731C275.324 88.9211 248.394 59.0811 213.004 59.0811" fill="black"/>
<path d="M64.6148 172.881H27.1148V102.111H64.8748C88.1148 102.111 102.635 116.371 102.635 137.491C102.635 158.611 87.8448 172.871 64.6148 172.871M27.1148 24.4811H47.4448C67.2448 24.4811 79.9248 34.2511 79.9248 52.4711C79.9248 70.6911 67.2548 81.7811 49.0348 81.7811H27.1148V24.4811ZM80.6348 87.8411C95.1048 79.8811 102.905 66.8911 102.905 49.5711C102.905 22.6311 80.7248 3.62109 48.7748 3.62109H4.6748V193.741H64.8748C101.575 193.741 126.135 170.501 126.135 137.501C126.135 113.121 109.915 91.2411 80.6348 87.8511" fill="black"/>
</g>
<defs>
<clipPath id="clip0_1654_53219">
<rect width="270.65" height="192.76" fill="white" transform="translate(4.6748 3.62109)"/>
</clipPath>
</defs>
</svg>
